<?xml version="1.0" standalone="no"?>
<!DOCTYPE svg PUBLIC "-//W3C//DTD SVG 20010904//EN"
 "http://www.w3.org/TR/2001/REC-SVG-20010904/DTD/svg10.dtd">
<svg version="1.0" xmlns="http://www.w3.org/2000/svg"
 width="1920.000000pt" height="1920.000000pt" viewBox="0 0 1920.000000 1920.000000"
 preserveAspectRatio="xMidYMid meet">
<metadata>
Created by potrace 1.14, written by Peter Selinger 2001-2017
</metadata>
<g transform="translate(0.000000,1920.000000) scale(0.100000,-0.100000)"
fill="#000000" stroke="none">
<path d="M2873 12590 c-89 -18 -176 -77 -227 -155 -68 -102 -66 -62 -66 -1157
l0 -988 98 0 c260 0 432 -58 582 -196 401 -372 250 -1028 -275 -1200 -69 -23
-103 -27 -242 -32 l-163 -5 0 -991 c0 -877 2 -999 16 -1047 35 -121 124 -213
241 -249 65 -20 71 -20 6653 -20 6565 0 6588 0 6651 20 83 26 151 77 194 145
67 103 65 80 65 1000 0 897 0 887 -54 979 -50 85 -181 176 -255 176 -11 0 -50
10 -87 21 -467 144 -661 693 -385 1085 112 160 263 257 462 299 136 29 228 98
282 213 l32 67 0 880 0 880 -32 67 c-40 84 -97 141 -181 181 l-67 32 -6600 1
c-3630 1 -6619 -2 -6642 -6z m9537 -440 l0 -60 75 0 74 0 3 58 3 57 1720 0
1720 0 3 -770 2 -771 -96 -27 c-637 -179 -978 -864 -734 -1474 130 -325 422
-579 759 -660 l71 -17 0 -773 0 -773 -1722 2 -1723 3 -3 108 -3 107 -74 0 -75
0 0 -110 0 -110 -4720 0 -4720 0 0 765 0 765 -37 1 c-28 1 -15 6 49 19 158 33
280 83 407 167 357 238 545 668 476 1092 -69 425 -380 771 -797 888 l-98 27 0
766 c0 422 3 770 7 773 3 4 2127 7 4720 7 l4713 0 0 -60z"/>
<path d="M12410 11700 l0 -130 75 0 75 0 0 130 0 130 -75 0 -75 0 0 -130z"/>
<path d="M13230 11580 c0 -20 7 -20 745 -20 738 0 745 0 745 20 0 20 -7 20
-745 20 -738 0 -745 0 -745 -20z"/>
<path d="M13230 11450 l0 -40 745 0 745 0 0 40 0 40 -745 0 -745 0 0 -40z"/>
<path d="M13230 11250 l0 -120 745 0 745 0 0 120 0 120 -745 0 -745 0 0 -120z"/>
<path d="M12412 11183 l3 -128 73 -3 72 -3 0 131 0 130 -75 0 -76 0 3 -127z"/>
<path d="M13230 11020 c0 -20 7 -20 745 -20 738 0 745 0 745 20 0 20 -7 20
-745 20 -738 0 -745 0 -745 -20z"/>
<path d="M13230 10900 c0 -20 7 -20 745 -20 738 0 745 0 745 20 0 20 -7 20
-745 20 -738 0 -745 0 -745 -20z"/>
<path d="M13230 10780 l0 -40 745 0 745 0 0 40 0 40 -745 0 -745 0 0 -40z"/>
<path d="M12412 10663 l3 -128 73 -3 72 -3 0 131 0 130 -75 0 -76 0 3 -127z"/>
<path d="M7140 10709 c-196 -23 -319 -128 -378 -322 -23 -77 -31 -1294 -8
-1424 40 -232 183 -361 420 -379 197 -15 375 60 452 191 60 103 67 142 72 388
l4 228 -154 -3 -153 -3 -5 -207 c-5 -189 -7 -209 -26 -235 -64 -87 -215 -83
-269 8 -19 33 -20 55 -23 674 -2 468 0 651 9 683 22 81 109 127 195 103 47
-13 64 -26 90 -66 16 -25 20 -53 24 -195 l5 -165 154 -3 153 -3 -4 193 c-4
176 -7 199 -30 259 -45 122 -128 206 -245 252 -34 13 -194 40 -213 36 -3 -1
-34 -5 -70 -10z"/>
<path d="M5030 10535 l0 -145 170 0 170 0 0 -890 0 -890 165 0 165 0 0 890 0
890 170 0 170 0 0 145 0 145 -505 0 -505 0 0 -145z"/>
<path d="M6192 9648 l3 -1033 163 -3 162 -2 0 1035 0 1035 -165 0 -165 0 2
-1032z"/>
<path d="M7900 9645 l0 -1035 160 0 160 0 0 324 0 323 65 133 c36 73 68 131
70 128 2 -2 65 -206 139 -454 l134 -449 172 -3 c160 -2 171 -1 166 15 -30 99
-377 1260 -382 1277 -4 17 46 123 185 396 105 205 191 375 191 376 0 2 -73 4
-163 4 l-163 0 -199 -421 c-109 -231 -202 -422 -207 -425 -5 -3 -7 186 -6 420
l3 426 -162 0 -163 0 0 -1035z"/>
<path d="M9120 9645 l0 -1035 445 0 445 0 0 150 0 150 -280 0 -280 0 0 315 0
315 225 0 225 0 0 150 0 150 -225 0 -225 0 0 275 0 275 280 0 280 0 0 145 0
145 -445 0 -445 0 0 -1035z"/>
<path d="M10110 10535 l0 -145 170 0 170 0 0 -890 0 -890 165 0 165 0 0 890 0
890 170 0 170 0 0 145 0 145 -505 0 -505 0 0 -145z"/>
<path d="M13230 10670 c0 -7 255 -10 745 -10 490 0 745 3 745 10 0 7 -255 10
-745 10 -490 0 -745 -3 -745 -10z"/>
<path d="M13230 10555 l0 -25 743 2 742 3 3 23 3 22 -745 0 -746 0 0 -25z"/>
<path d="M13230 10380 l0 -40 745 0 745 0 0 40 0 40 -745 0 -745 0 0 -40z"/>
<path d="M12410 10145 l0 -125 75 0 75 0 0 125 0 125 -75 0 -75 0 0 -125z"/>
<path d="M13230 10225 l0 -25 746 0 745 0 -3 23 -3 22 -742 3 -743 2 0 -25z"/>
<path d="M13230 10060 l0 -90 745 0 745 0 0 90 0 90 -745 0 -745 0 0 -90z"/>
<path d="M12417 9753 c-4 -3 -7 -62 -7 -130 l0 -123 75 0 75 0 0 130 0 130
-68 0 c-38 0 -72 -3 -75 -7z"/>
<path d="M13230 9720 l0 -40 746 0 745 0 -3 38 -3 37 -742 3 -743 2 0 -40z"/>
<path d="M13230 9600 c0 -20 7 -20 745 -20 738 0 745 0 745 20 0 20 -7 20
-745 20 -738 0 -745 0 -745 -20z"/>
<path d="M13968 9432 c-730 -2 -738 -2 -738 -22 0 -20 7 -20 745 -20 731 0
745 0 745 19 0 11 -3 21 -7 23 -5 2 -340 2 -745 0z"/>
<path d="M13230 9290 l0 -40 745 0 745 0 0 40 0 40 -745 0 -745 0 0 -40z"/>
<path d="M12417 9233 c-4 -3 -7 -62 -7 -130 l0 -123 75 0 75 0 0 130 0 130
-68 0 c-38 0 -72 -3 -75 -7z"/>
<path d="M13230 9100 c0 -20 7 -20 745 -20 738 0 745 0 745 20 0 20 -7 20
-745 20 -738 0 -745 0 -745 -20z"/>
<path d="M13230 8995 l0 -25 745 0 745 0 0 25 0 25 -745 0 -745 0 0 -25z"/>
<path d="M13230 8840 l0 -90 745 0 745 0 0 90 0 90 -745 0 -745 0 0 -90z"/>
<path d="M12410 8590 l0 -130 75 0 75 0 0 130 0 130 -75 0 -75 0 0 -130z"/>
<path d="M13230 8640 l0 -40 746 0 745 0 -3 38 -3 37 -742 3 -743 2 0 -40z"/>
<path d="M13230 8510 c0 -20 7 -20 745 -20 738 0 745 0 745 20 0 20 -7 20
-745 20 -738 0 -745 0 -745 -20z"/>
<path d="M13230 8275 l0 -65 743 2 742 3 3 63 3 62 -746 0 -745 0 0 -65z"/>
<path d="M12410 8070 l0 -130 75 0 75 0 0 130 0 130 -75 0 -75 0 0 -130z"/>
<path d="M13230 8100 c0 -20 7 -20 745 -20 738 0 745 0 745 20 0 20 -7 20
-745 20 -738 0 -745 0 -745 -20z"/>
<path d="M13230 8000 c0 -20 7 -20 745 -20 738 0 745 0 745 20 0 20 -7 20
-745 20 -738 0 -745 0 -745 -20z"/>
<path d="M13230 7840 c0 -20 7 -20 745 -20 738 0 745 0 745 20 0 20 -7 20
-745 20 -738 0 -745 0 -745 -20z"/>
<path d="M13230 7690 l0 -40 745 0 745 0 0 40 0 40 -745 0 -745 0 0 -40z"/>
<path d="M12410 7550 l0 -130 75 0 75 0 0 130 0 130 -75 0 -75 0 0 -130z"/>
</g>
</svg>
